HIERARCHY
ROOT Hips
{
	OFFSET 0.000000 0.000000 0.000000
	CHANNELS 6 Xposition Yposition Zposition Xrotation Yrotation Zrotation
	JOINT LeftUpLeg_virtual
	{
		OFFSET 0.000000 0.000000 0.000000
		CHANNELS 3 Xrotation Yrotation Zrotation
		JOINT LeftUpLeg
		{
			OFFSET 15.427100 -6.655098 0.678600
			CHANNELS 3 Xrotation Yrotation Zrotation
			JOINT LeftLeg
			{
				OFFSET 4.081073 -39.591068 13.024000
				CHANNELS 3 Xrotation Yrotation Zrotation
				JOINT LeftFoot
				{
					OFFSET -4.081074 -37.707932 -15.979700
					CHANNELS 3 Xrotation Yrotation Zrotation
					JOINT LeftToeBase
					{
						OFFSET 5.346399 -15.068900 20.645000
						CHANNELS 3 Xrotation Yrotation Zrotation
						JOINT LeftToe_End
						{
							OFFSET 2.754700 0.931300 11.300900
							CHANNELS 3 Xrotation Yrotation Zrotation
							End Site
							{
								OFFSET 0 0 0
							}
						}
					}
				}
			}
		}
	}
	JOINT RightUpLeg_virtual
	{
		OFFSET 0.000000 0.000000 0.000000
		CHANNELS 3 Xrotation Yrotation Zrotation
		JOINT RightUpLeg
		{
			OFFSET -15.569500 -6.655098 0.678600
			CHANNELS 3 Xrotation Yrotation Zrotation
			JOINT RightLeg
			{
				OFFSET -4.081825 -39.591045 13.023800
				CHANNELS 3 Xrotation Yrotation Zrotation
				JOINT RightFoot
				{
					OFFSET 4.081824 -37.707954 -15.979600
					CHANNELS 3 Xrotation Yrotation Zrotation
					JOINT RightToeBase
					{
						OFFSET -5.346400 -15.068900 20.645000
						CHANNELS 3 Xrotation Yrotation Zrotation
						JOINT RightToe_End
						{
							OFFSET -2.754700 0.931300 11.300900
							CHANNELS 3 Xrotation Yrotation Zrotation
							End Site
							{
								OFFSET 0 0 0
							}
						}
					}
				}
			}
		}
	}
	JOINT Spine_virtual
	{
		OFFSET 0.000000 0.000000 0.000000
		CHANNELS 3 Xrotation Yrotation Zrotation
		JOINT Spine
		{
			OFFSET -0.279200 12.230698 -2.892100
			CHANNELS 3 Xrotation Yrotation Zrotation
			JOINT Spine1
			{
				OFFSET -0.232667 10.192268 -1.242267
				CHANNELS 3 Xrotation Yrotation Zrotation
				JOINT Spine1_split
				{
					OFFSET -0.232667 10.192268 -1.242267
					CHANNELS 3 Xrotation Yrotation Zrotation
					JOINT Spine2
					{
						OFFSET -0.232667 10.192268 -1.242267
						CHANNELS 3 Xrotation Yrotation Zrotation
						JOINT Neck_virtual
						{
							OFFSET 0.000000 0.000000 0.000000
							CHANNELS 3 Xrotation Yrotation Zrotation
							JOINT Neck
							{
								OFFSET -0.418800 17.814194 8.416900
								CHANNELS 3 Xrotation Yrotation Zrotation
								JOINT Head
								{
									OFFSET 0.000000 7.031097 3.806800
									CHANNELS 3 Xrotation Yrotation Zrotation
									JOINT HeadTop_End
									{
										OFFSET 0.000000 24.646606 12.978600
										CHANNELS 3 Xrotation Yrotation Zrotation
										End Site
										{
											OFFSET 0 0 0
										}
									}
								}
							}
						}
						JOINT LeftShoulder_virtual
						{
							OFFSET 0.000000 0.000000 0.000000
							CHANNELS 3 Xrotation Yrotation Zrotation
							JOINT LeftShoulder
							{
								OFFSET 8.476499 7.247704 -3.868750
								CHANNELS 3 Xrotation Yrotation Zrotation
								JOINT LeftShoulder_split
								{
									OFFSET 8.476499 7.247704 -3.868750
									CHANNELS 3 Xrotation Yrotation Zrotation
									JOINT LeftArm
									{
										OFFSET 9.308998 -2.777710 0.208600
										CHANNELS 3 Xrotation Yrotation Zrotation
										JOINT LeftForeArm
										{
											OFFSET 29.972298 0.000000 0.000000
											CHANNELS 3 Xrotation Yrotation Zrotation
											JOINT LeftHand
											{
												OFFSET 26.026505 0.000000 0.000000
												CHANNELS 3 Xrotation Yrotation Zrotation
												End Site
												{
													OFFSET 0 0 0
												}
											}
										}
									}
								}
							}
						}
						JOINT RightShoulder_virtual
						{
							OFFSET 0.000000 0.000000 0.000000
							CHANNELS 3 Xrotation Yrotation Zrotation
							JOINT RightShoulder
							{
								OFFSET -7.570500 7.247704 -3.868750
								CHANNELS 3 Xrotation Yrotation Zrotation
								JOINT RightShoulder_split
								{
									OFFSET -7.570500 7.247704 -3.868750
									CHANNELS 3 Xrotation Yrotation Zrotation
									JOINT RightArm
									{
										OFFSET -9.308998 -2.777710 0.208500
										CHANNELS 3 Xrotation Yrotation Zrotation
										JOINT RightForeArm
										{
											OFFSET -29.972300 0.000000 0.000000
											CHANNELS 3 Xrotation Yrotation Zrotation
											JOINT RightHand
											{
												OFFSET -26.026505 0.000000 0.000000
												CHANNELS 3 Xrotation Yrotation Zrotation
												End Site
												{
													OFFSET 0 0 0
												}
											}
										}
									}
								}
							}
						}
					}
				}
			}
		}
	}
}
MOTION
Frames: 4
Frame Time: 0.03333333
-10.112022 75.679550 8.003899 0.000000 0.000000 0.000000 14.861431 -45.952843 18.343950 -49.613968 32.602440 32.046158 38.049177 -23.890146 -0.637695 -5.735214 -1.002565 -8.866772 -4.853670 -7.837263 0.948533 0.000000 0.000000 0.000000 12.269035 -41.615154 17.646046 -13.424828 -6.358316 -40.316517 39.839769 1.279111 -6.936424 -41.452073 -8.450427 25.366959 7.510940 5.015921 2.522660 0.000000 0.000000 0.000000 13.975897 -42.444732 18.054027 13.502873 -6.078791 -0.550806 26.287868 -1.835542 -1.493079 -0.143027 -3.070758 1.855763 0.000000 0.000000 0.000000 13.232365 -1.731018 -2.212759 2.278317 3.150363 12.888389 15.090393 0.546450 -6.064901 0.000000 0.000000 0.000000 15.469829 -2.649156 -2.957481 3.238313 -28.769559 1.485064 -1.099392 -3.883749 -0.067909 -32.748073 -14.585012 -32.056520 -5.388312 -16.011043 1.165438 0.000000 0.000000 0.000000 14.283339 -1.157066 -1.946020 2.484865 13.478675 18.350709 10.286150 1.709593 3.255468 -10.774798 -9.638617 13.460890 -78.164412 83.234939 75.707504 0.000000 0.000000 0.000000 
-9.121847 75.889336 7.783009 0.000000 0.000000 0.000000 10.757024 -44.482095 14.505877 -50.221384 32.203270 32.324120 39.353013 -24.659344 -0.581955 -3.850651 -2.633524 -7.861281 -4.269348 -7.617021 0.503975 0.000000 0.000000 0.000000 8.265675 -40.095560 14.007267 -10.128070 -7.131914 -39.698750 38.882720 1.184348 -6.910506 -39.866602 -9.080870 26.261017 7.545631 4.787053 2.731398 0.000000 0.000000 0.000000 10.371773 -42.316949 15.037148 13.381675 -5.753849 -0.204304 24.889124 -0.982217 -1.624587 0.371970 -3.138925 2.224512 0.000000 0.000000 0.000000 12.429271 -0.762452 -2.354525 1.350558 4.025424 11.251938 13.588092 1.594630 -7.985840 0.000000 0.000000 0.000000 14.423020 -1.792898 -3.066622 3.114360 -29.218521 1.595039 -0.567466 -3.144083 -0.462056 -30.811222 -10.842251 -30.096737 -6.503079 -17.185311 0.151258 0.000000 0.000000 0.000000 13.386051 -0.357026 -2.108122 2.144426 13.384501 19.175170 9.588021 1.521608 4.014255 -10.534630 -12.225009 11.226743 -84.309581 86.233604 82.138550 0.000000 0.000000 0.000000 
-8.287261 75.943001 7.411785 0.000000 0.000000 0.000000 6.932200 -42.993869 10.995553 -51.277099 31.798168 33.115602 40.562595 -25.214960 -0.555548 -1.711217 -4.178022 -7.036273 -3.629966 -7.430211 -0.004023 0.000000 0.000000 0.000000 4.713992 -38.717802 10.783898 -7.507584 -7.887752 -38.868960 38.516974 1.133679 -6.922103 -38.352878 -9.558109 27.235323 7.080929 4.586469 2.935158 0.000000 0.000000 0.000000 6.858689 -41.870794 12.111591 13.118209 -5.273707 0.461579 23.572760 -0.229173 -1.673144 0.895961 -3.290423 2.333465 0.000000 0.000000 0.000000 11.596024 0.122520 -2.332757 -0.729850 4.910949 8.885276 11.841065 2.938620 -9.833925 0.000000 0.000000 0.000000 13.451942 -0.958771 -2.995497 2.929494 -29.459552 1.673103 0.253670 -2.408610 -0.769658 -29.947726 -7.321250 -28.894757 -7.835980 -19.015259 -1.159151 0.000000 0.000000 0.000000 12.463955 0.353351 -2.119779 1.851821 12.981702 19.521982 8.989740 1.700219 4.467706 -10.051724 -15.086257 10.570086 -90.250725 88.621575 88.578196 0.000000 0.000000 0.000000 
-7.640058 75.855804 7.114113 0.000000 0.000000 0.000000 3.553605 -42.107860 7.918843 -52.480745 31.399746 34.287649 41.615315 -25.469823 -0.509403 0.249304 -5.513670 -6.417701 -3.431328 -7.325841 -0.390842 0.000000 0.000000 0.000000 1.879108 -37.911955 8.048145 -5.722588 -8.446565 -37.850641 38.562370 1.266634 -6.978517 -36.938674 -9.720720 28.298408 5.979315 4.445377 3.029276 0.000000 0.000000 0.000000 3.940366 -41.400505 9.466500 12.901484 -4.716688 1.332176 22.204199 0.364995 -1.692639 1.295444 -3.152065 2.179414 0.000000 0.000000 0.000000 10.578541 0.856538 -2.233925 -3.626064 5.748961 6.709881 10.082614 4.544303 -11.378612 0.000000 0.000000 0.000000 12.391149 -0.196583 -2.809009 2.753264 -29.573032 1.749115 1.408227 -1.947326 -0.727960 -29.641928 -4.480393 -28.524451 -9.240903 -21.580311 -2.657192 0.000000 0.000000 0.000000 11.377262 0.942184 -2.029638 1.648312 12.289629 19.144544 8.468218 2.225741 4.365144 -9.508311 -17.334651 11.844730 13.380400 89.381973 -14.458296 0.000000 0.000000 0.000000 
